<?xml version="1.0" encoding="utf-8"?>
<!DOCTYPE svg PUBLIC "-//W3C//DTD SVG 1.1//EN" "http://www.w3.org/Graphics/SVG/1.1/DTD/svg11.dtd">
<svg version="1.1" xmlns="http://www.w3.org/2000/svg" width="64" height="64" viewBox="0 0 64 64">
<g transform="scale(0.031,0.031)">
<g>
<rect fill="#ffffff" width="2048" height="2048" />
</g>
<g transform="translate(0,0)">
<g transform="scale(1,-1) translate(0,-871)">
<path stroke="none" fill="#000000" d="M948 360H64L36 397H786Q798 397 833 439Q868 481 885 481Q893 481 898 477Q924 455 946 431Q977 395 977 378Q977 362 951 362V362V362V363L948 360Z" />
</g>
</g>
<g transform="translate(1024,0)">
<g transform="scale(1,-1) translate(0,-871)">
<path stroke="none" fill="#000000" d="M966 -80H82L53 -47H803Q815 -47 850 -9Q884 29 902 29Q910 29 915 25Q941 5 961 -17Q991 -49 991 -65Q991 -79 965 -79V-79L966 -80ZM852 138H184L155 171H698Q709 171 744 207Q778 243 794 243Q799 243 807 238Q837 212 851 196Q879 166 879 152Q879 138 853 138V138H852ZM404 600H447Q459 600 491 631Q507 646 518 646Q526 646 535 640Q557 622 569 609Q580 595 580 583Q580 566 544 566H405V380Q467 390 506 396Q545 402 567 402Q579 402 583 400Q582 396 582 392Q560 368 444 321Q366 289 243 246Q139 209 137 206Q133 205 130 195Q122 171 108 166Q92 160 71 222Q50 284 50 319Q50 335 56 335L114 340V718Q166 714 192 711Q270 702 270 688Q270 682 244 670Q232 664 232 661V354L287 362V820Q310 819 334 819Q435 807 437 789Q439 777 422 771Q405 765 405 758V600H404ZM700 549Q746 585 795 643Q828 683 846 711Q878 689 911 667Q973 614 965 604Q959 597 950 597Q944 597 933 601Q921 605 919 604Q872 578 826 552Q766 523 702 507V433Q702 407 713 395Q725 384 757 384H867Q871 384 874 385Q892 391 901 405Q925 465 939 497Q953 530 960 528Q966 527 966 509Q966 491 962 465Q953 407 955 403Q968 397 974 393Q994 378 994 356Q994 352 992 342Q982 303 945 283Q933 277 911 269H691Q587 269 587 359V819Q597 820 603 820Q645 820 691 815Q737 810 737 802Q739 794 727 786Q715 777 703 768V552V552V553L700 549Z" />
</g>
</g>
<g transform="translate(0,1024)">
<g transform="scale(1,-1) translate(0,-871)">
<path stroke="none" fill="#000000" d="M662 66Q662 23 646 -2Q630 -27 597 -24Q575 -24 559 -6Q544 12 544 38Q544 46 544 54Q547 62 548 65Q553 79 555 94Q557 110 557 122Q557 162 533 212Q531 220 530 230Q552 233 602 186Q662 130 662 66V66V66ZM700 -60Q726 2 744 46Q762 90 769 119Q773 138 782 189Q790 239 790 242Q810 240 830 239Q918 209 914 185Q913 175 902 174Q892 173 887 163Q851 97 813 43Q766 -23 722 -60H828Q834 -60 882 -16Q906 6 920 6Q927 6 931 2Q953 -16 973 -36Q999 -64 999 -78Q999 -92 973 -92H411L383 -60H701H700ZM590 297Q582 285 564 275Q546 265 524 265Q510 265 496 273Q482 281 482 293V371H319Q314 345 310 325Q306 305 300 285Q345 270 399 224Q469 166 478 108Q480 98 480 80Q480 45 464 24Q448 3 426 3Q400 3 382 29Q362 59 362 110Q362 145 325 207Q301 245 293 259Q261 155 203 65Q155 -7 102 -55Q56 -97 36 -95Q46 -75 56 -55Q105 11 138 89Q190 214 204 374H52L26 407H206L209 473V619H170Q138 567 104 527Q67 483 31 455Q40 489 50 523Q93 629 106 683Q110 703 116 740Q128 816 128 824Q128 828 136 828Q160 828 212 800Q265 772 263 756Q261 744 249 743Q237 742 232 730L188 650H326Q333 650 368 685Q384 701 398 701Q412 701 426 687Q446 669 458 655Q469 641 469 632Q469 616 433 616H363Q369 611 369 605Q369 593 353 584Q337 576 337 575Q334 530 332 494Q330 458 320 404H368Q377 404 399 432Q421 460 435 460Q441 460 449 454L477 426V603Q499 601 527 592Q555 582 584 567H784Q784 568 800 579Q834 603 852 603Q866 603 904 575Q942 547 944 537Q946 532 932 516Q928 511 916 501V303Q916 295 898 279Q874 259 848 259Q826 259 812 271Q799 283 799 293L585 294L590 297ZM595 534V329H804V534H595V534ZM946 700H456L428 734H822Q828 734 854 766Q880 798 898 798Q906 798 912 793Q934 775 952 757Q976 731 976 717Q976 701 947 701V701V701V702L946 700Z" />
</g>
</g>
<g transform="translate(1024,1024)">
<g transform="scale(1,-1) translate(0,-871)">
<path stroke="none" fill="#000000" d="M612 186H546Q545 183 535 173Q525 164 525 160V78H612V186V186ZM423 186H317V78H423V186V186ZM818 77V185H734Q733 182 723 172Q713 163 713 159V77H817H818ZM289 688H222Q184 644 145 610Q100 570 57 548Q67 574 77 600Q126 686 140 725Q145 743 155 787Q165 831 165 836Q165 839 173 839Q201 839 259 818Q317 797 314 784Q313 774 300 773Q287 772 281 763L249 722H389Q397 722 433 756Q451 772 467 772Q479 772 495 759Q519 739 530 726Q540 713 540 703Q540 687 502 687H347Q374 673 390 657Q410 637 414 613Q415 608 415 598Q415 574 399 559Q383 545 363 545Q345 545 332 558Q318 572 318 598Q318 602 320 614Q322 628 310 648Q298 668 287 688V688H289ZM780 339V445H258V339H780V339ZM744 688H665Q613 626 561 588Q581 558 581 530Q581 512 573 498Q565 484 552 478H771Q781 488 797 499Q817 513 829 513Q845 513 881 487Q917 461 919 449Q921 444 907 428Q903 424 893 414V300Q893 282 873 268Q853 254 829 254Q807 254 794 266Q782 277 782 303H260L258 247Q269 241 281 237Q301 229 321 215H805Q818 225 838 236Q858 248 866 248Q886 248 920 230Q954 212 956 196Q957 185 937 167Q925 157 925 153V-61Q925 -87 883 -111Q841 -135 807 -135Q776 -135 782 -113Q788 -91 770 -75Q744 -59 720 -43Q718 -40 720 -39Q722 -38 728 -38Q731 -38 770 -43Q786 -45 798 -45Q808 -45 811 -43Q819 -38 821 -30Q821 -28 821 -22V40H717V-82Q717 -95 699 -107Q680 -119 658 -119Q627 -119 616 -95V39H529V-87Q529 -100 509 -112Q489 -124 467 -124Q451 -124 441 -118Q431 -112 426 -98V39H320V-99Q320 -117 302 -130Q284 -142 262 -142Q240 -142 230 -132Q220 -122 219 -108V92Q206 57 190 31Q160 -19 101 -69Q49 -112 25 -119Q49 -101 88 -28Q132 55 142 163Q142 199 144 241Q146 283 147 310V512Q205 503 256 474H505Q480 486 476 520Q472 554 452 582Q434 605 416 629Q418 632 434 632Q454 632 482 626Q510 620 532 608Q546 634 564 668Q582 703 588 723Q594 743 604 787Q614 831 614 836Q614 839 622 839Q650 839 708 818Q766 797 763 784Q762 774 749 773Q736 772 730 763L696 719H842Q850 719 886 753Q904 769 920 769Q932 769 948 756Q972 736 983 723Q993 710 993 700Q993 684 955 684H796Q827 671 847 653Q873 631 877 604Q878 599 878 589Q878 565 862 550Q846 535 827 535Q809 535 795 549Q781 562 781 588Q781 592 783 604Q785 618 769 644Q747 682 746 684V684V684V685L744 688Z" />
</g>
</g>
</g>
</svg>