<?xml version="1.0" encoding="utf-8"?>
<!-- Generator: Adobe Illustrator 22.1.0, SVG Export Plug-In . SVG Version: 6.00 Build 0)  -->
<svg version="1.1" id="图层_1" xmlns="http://www.w3.org/2000/svg" xmlns:xlink="http://www.w3.org/1999/xlink" x="0px" y="0px"
	 viewBox="0 0 50 50" style="enable-background:new 0 0 50 50;" xml:space="preserve">
<style type="text/css">
	.st0{display:none;}
	.st1{display:inline;fill:none;}
</style>
<g class="st0">
	<polygon class="st1" points="16.1,62.1 19.7,62.1 19.7,62.1 16.1,62.1 	"/>
</g>
<g>
	<path d="M4.4,18.4c-0.2,0.1-0.3,0.2-0.5,0.2c-0.2,0-0.3-0.1-0.4-0.3l-1.2-2.7c0.8-0.3,1.6-0.7,2.3-1.1c0.7-0.4,1.4-0.9,2.1-1.5V6.7
		H3L2.4,5.6h4.2V1l4,0.5l-0.6,0.6v3.4h2.1l1-0.9l1.2,2h-4.3v4.6c0.3-0.7,0.6-1.4,0.8-2.1c0.2-0.7,0.4-1.3,0.5-1.9l2.2,1.2
		c0.2,0.1,0.3,0.2,0.3,0.4c0,0.2,0,0.3-0.2,0.5c-0.5,0.5-1.1,1-1.7,1.5c-0.6,0.4-1.2,0.8-2,1.2v0.6c0.6,0.2,1.2,0.5,1.8,0.8
		s1.1,0.6,1.5,1c0.4,0.4,0.7,0.7,0.8,1.1c0.1,0.4,0,0.7-0.3,1.1l-1.9,1.9c-0.2-0.8-0.5-1.6-0.8-2.5c-0.3-0.8-0.7-1.6-1-2.3v2.9
		c0,1.3-0.2,2.4-0.6,3.4c-0.4,1-1,1.7-1.9,2.1c-0.4,0.2-0.7,0.2-1,0.2c-0.3,0-0.5-0.2-0.8-0.5l-1.8-2.4c0.4,0,0.8,0,1.1,0
		c0.3,0,0.6-0.2,0.8-0.4c0.2-0.2,0.4-0.5,0.5-0.9s0.2-0.9,0.2-1.5v-1.8c-0.2,0.4-0.4,0.7-0.6,1.1c-0.2,0.4-0.4,0.7-0.6,1
		c-0.2,0.3-0.4,0.6-0.6,0.9S4.5,18.2,4.4,18.4z M3.9,12.9c0-0.6-0.1-1.1-0.1-1.6c0-0.5-0.1-0.9-0.2-1.3C3.5,9.5,3.4,9.1,3.3,8.8
		S3.1,8,2.9,7.7c0.7,0.3,1.3,0.6,1.7,0.9c0.5,0.3,0.9,0.7,1.1,1c0.3,0.3,0.4,0.6,0.4,0.9c0,0.3-0.1,0.5-0.3,0.8L3.9,12.9z M11.5,5.1
		c0-0.3,0-0.6-0.1-1s-0.1-0.7-0.2-1.1s-0.2-0.7-0.3-1c-0.1-0.3-0.2-0.6-0.3-0.8c0.6,0.1,1.2,0.3,1.6,0.5c0.5,0.2,0.9,0.5,1.1,0.7
		C13.8,2.7,14,2.9,14,3.2s-0.1,0.4-0.3,0.6L11.5,5.1z M13.4,12.7c0.3-0.9,0.6-1.9,0.8-2.9c0.2-1,0.4-2.1,0.6-3.1c0.2-1,0.3-2,0.4-3
		c0.1-1,0.2-1.8,0.3-2.6l2.9,0.4c0.5,0,0.7,0.3,0.6,0.9c-0.1,0.5-0.3,1.1-0.5,1.7c-0.2,0.6-0.5,1.3-0.8,2h3.8l1-0.9l1.2,2h-1.2
		c-0.2,1.7-0.6,3.2-1.2,4.6c-0.5,1.4-1.2,2.7-2,3.9c0.6,0.8,1.3,1.6,2,2.3s1.5,1.3,2.4,1.9l-2,2.2c-0.2,0.3-0.5,0.4-0.9,0.4
		c-0.3,0-0.6-0.2-0.9-0.6c-0.9-1.2-1.7-2.5-2.4-3.9c-1,1.1-2.1,2-3.3,2.8c-1.2,0.8-2.4,1.3-3.6,1.7c1.2-1.1,2.4-2.2,3.3-3.3
		s1.8-2.4,2.5-3.8c-0.3-0.8-0.5-1.7-0.7-2.6c-0.2-0.9-0.3-1.8-0.5-2.8c-0.3,0.5-0.7,1-1,1.5C14.1,11.9,13.8,12.3,13.4,12.7z
		 M17.2,7.1c-0.1,0.3-0.3,0.5-0.4,0.8c-0.2,0.3-0.3,0.6-0.5,0.9c0.2,0.8,0.5,1.5,0.7,2.1c0.2,0.7,0.5,1.3,0.8,1.8
		c0.6-1.7,1-3.6,1.3-5.7H17.2z"/>
	<path d="M29.3,1.8l-0.7,0.5v0.2h3.8l0.4-0.6L35,2.7l-0.5,0.7v13h-2.1V5.1l-0.5,0.6v6.8c0,1.5-0.2,3-0.6,4.3
		c0.6,0.3,1.2,0.5,1.7,0.8c0.5,0.3,0.9,0.6,1.3,0.8c0.3,0.3,0.5,0.5,0.6,0.7c0.1,0.2,0.1,0.4-0.1,0.5l-2.6,2.2
		c-0.1-0.7-0.3-1.4-0.5-2.2c-0.2-0.8-0.5-1.5-0.8-2.2c-0.4,1.1-1,2.1-1.8,2.9c-0.8,0.8-1.8,1.5-3,2.1c1-1.1,1.7-2.5,2.1-4.1
		c0.4-1.6,0.6-3.6,0.6-5.8v-8L32.4,5V3.7h-3.9V16h-2.1V1.3L29.3,1.8z M43.7,10.6c-0.1,1.9-0.5,3.6-1,4.9h2.6l1-0.9l1.2,2h-5.2
		c-0.1,0.2-0.1,0.3-0.2,0.4c-0.1,0.1-0.2,0.3-0.2,0.4c2.4,0.3,4,0.8,4.8,1.4c0.8,0.6,1,1.2,0.5,1.8l-1.6,1.8
		c-0.5-0.7-1.1-1.5-1.8-2.3s-1.5-1.5-2.3-2.1c-0.8,1.1-1.9,2.1-3.3,2.8c-1.4,0.7-3,1.3-5,1.6c1.5-0.8,2.7-1.7,3.7-2.6
		c1-0.9,1.7-2,2.2-3.3h-3.6l-0.6-1.1h1.8c-0.2-0.6-0.4-1.1-0.8-1.8c-0.3-0.6-0.7-1.1-1-1.5c0.8,0.1,1.5,0.2,2.1,0.3s1,0.4,1.3,0.6
		c0.3,0.2,0.5,0.4,0.5,0.6c0,0.2-0.1,0.4-0.3,0.6l-1.2,1.1h2.1c0.3-0.9,0.5-1.8,0.6-2.9c0.1-1,0.2-2.2,0.2-3.5l2.6,0.3
		c0.4,0,0.6,0.1,0.7,0.3C43.7,9.9,43.8,10.2,43.7,10.6z M44.3,8.4h-8.4l-0.7-1.1h4.3V4.8h-3.2l-0.6-1.1h3.7V0.9L44,1.4l-1,0.8v1.5
		h1.9l1-0.9l1.2,2H43v2.5h1.2l0.5-0.9l3,1.3l-3.4,3.8L44.3,8.4z M37.8,12.6c-0.1-0.3-0.2-0.6-0.3-0.9c-0.2-0.3-0.3-0.6-0.5-0.9
		c-0.2-0.3-0.4-0.6-0.6-0.9c-0.2-0.3-0.4-0.5-0.6-0.7c0.7,0,1.4,0.1,1.9,0.2c0.6,0.1,1,0.3,1.4,0.5c0.4,0.2,0.6,0.4,0.7,0.6
		c0.1,0.2,0,0.4-0.2,0.6L37.8,12.6z"/>
</g>
<g>
	<path d="M3.9,31.7h13.9l1.6-1.3l3.4,3.1l-2,0.9c-0.9,0.9-1.9,1.7-2.9,2.5c-1,0.8-2,1.5-3.1,2.1c-1.1,0.6-2.1,1.2-3.2,1.8
		c-1.1,0.5-2.2,1-3.3,1.5c0.4,0.6,0.9,1.1,1.5,1.5c0.6,0.4,1.2,0.6,1.9,0.6c1.1,0.1,2.2,0.1,3.3,0.1s2.1,0,3.1,0
		c1,0,1.9-0.1,2.7-0.2c0.8-0.1,1.6-0.2,2.3-0.4l-0.9,2.3c-0.1,0.3-0.2,0.5-0.3,0.7c-0.1,0.2-0.2,0.3-0.3,0.4s-0.3,0.2-0.5,0.2
		s-0.4,0.1-0.6,0.1h-4.2c-1.4,0-2.6-0.1-3.5-0.4c-1-0.3-1.8-0.6-2.5-1c-0.7-0.4-1.3-0.9-1.7-1.5S7.6,43.6,7.3,43
		c0,1-0.1,1.9-0.3,2.6c-0.2,0.7-0.5,1.2-0.7,1.5s-0.6,0.5-0.9,0.5s-0.6-0.1-0.8-0.5l-1.9-2.9c1-0.4,1.9-1,2.8-1.7
		c0.9-0.7,1.6-1.5,2.1-2.3c0,0.2,0.1,0.4,0.1,0.6c0,0.2,0.1,0.4,0.2,0.6c1.7-1.3,3.3-2.6,4.9-4c1.6-1.4,3.1-2.9,4.5-4.6H4.4
		L3.9,31.7z M12.5,31.5c-0.1-0.8-0.4-1.6-0.8-2.5c-0.4-0.9-0.9-1.7-1.5-2.4c0.5,0,1.1,0.1,1.7,0.3c0.6,0.1,1.1,0.3,1.6,0.4
		s0.9,0.4,1.3,0.6c0.4,0.2,0.6,0.4,0.8,0.7s0.2,0.5,0.1,0.7c-0.1,0.2-0.3,0.5-0.7,0.8L12.5,31.5z"/>
	<path d="M31.9,35.7H31v0c0,2.9-0.4,5.4-1.2,7.4s-2,3.7-3.4,4.9c0.3-0.9,0.6-1.8,0.7-2.6c0.2-0.9,0.3-1.8,0.4-2.7
		c0.1-0.9,0.2-1.9,0.2-3c0-1,0.1-2.2,0.1-3.5v-4.4h-1.2l-0.4-1.1h4.2c-0.1-0.4-0.2-0.8-0.4-1.2s-0.3-0.8-0.5-1.2
		c-0.2-0.4-0.3-0.7-0.5-1s-0.3-0.5-0.5-0.7c0.9,0.1,1.6,0.3,2.3,0.5c0.7,0.2,1.2,0.5,1.6,0.8c0.4,0.3,0.7,0.6,0.8,0.9
		c0.1,0.3,0.1,0.5-0.1,0.7l-1.8,1.2H34l1-0.8l1.1,1.9H31v2.8h1l0.6-1l3.2,1.2l-0.7,1v6.9c0,0.5-0.1,1.1-0.2,1.6
		c-0.1,0.5-0.3,1-0.5,1.5c-0.2,0.5-0.4,0.8-0.7,1.2c-0.3,0.3-0.6,0.6-0.9,0.7c-0.4,0.2-0.7,0.2-0.9,0.2c-0.2-0.1-0.5-0.3-0.7-0.6
		l-1.5-2.1c0.8,0.2,1.3,0.1,1.7-0.3c0.4-0.4,0.5-1.1,0.5-2.3V35.7z M37.7,48c-0.4,0.2-0.7,0.1-0.9-0.4l-1.3-2.8c0.2,0,0.4,0,0.6,0
		c0.2,0,0.4,0,0.6-0.1V33.4c-0.2,0.2-0.5,0.4-0.7,0.5c-0.2,0.2-0.5,0.3-0.7,0.4c0.3-0.5,0.6-1.1,0.8-1.8c0.3-0.6,0.5-1.3,0.7-2
		c0.2-0.7,0.4-1.3,0.5-2c0.1-0.7,0.3-1.3,0.4-1.9l3.1,0.8c0.5,0.1,0.6,0.3,0.5,0.7c-0.1,0.2-0.2,0.5-0.4,0.8
		c-0.2,0.3-0.3,0.6-0.6,0.8h5.2l1-0.9l1.2,2h-8.3c-0.3,0.3-0.6,0.6-0.8,0.9c-0.3,0.3-0.6,0.6-0.9,0.8l3.2,0.4L40,33.8v0.5
		c0.4-0.2,0.9-0.5,1.3-0.7c0.4-0.3,0.9-0.5,1.3-0.8c0.4-0.3,0.8-0.5,1.2-0.8c0.4-0.3,0.7-0.5,0.9-0.8l2.2,1.8
		c0.1,0.2,0.2,0.3,0.2,0.5c0,0.1-0.1,0.3-0.2,0.3c-0.2,0.1-0.4,0.2-0.7,0.3s-0.7,0.2-1.1,0.3s-0.9,0.2-1.3,0.3
		c-0.5,0.1-1,0.2-1.4,0.2c0.1,0.7,0.3,1.4,0.5,2.1s0.4,1.3,0.7,2c0.6-1.2,1.1-2.4,1.5-3.8l2.4,1.7c0.1,0.1,0.2,0.2,0.2,0.4
		s0,0.3-0.2,0.5c-0.2,0.2-0.4,0.5-0.6,0.7s-0.5,0.5-0.8,0.7c-0.3,0.2-0.6,0.4-0.9,0.6c-0.3,0.2-0.6,0.4-0.9,0.5c0.5,1,1,1.9,1.7,2.7
		c0.6,0.8,1.3,1.4,2.1,1.9l-2,2.8c-0.2,0.4-0.5,0.5-0.8,0.5c-0.3,0-0.5-0.2-0.8-0.5c-0.4-0.4-0.7-1-1-1.8c-0.3-0.8-0.6-1.8-0.9-2.9
		c-0.3-1.1-0.5-2.3-0.7-3.7c-0.2-1.4-0.3-2.8-0.4-4.2C41,35,40.8,35,40.6,35c-0.2,0-0.4,0-0.6,0v9c0.7-0.2,1.3-0.4,1.9-0.6
		c-0.2,0.4-0.5,0.8-0.8,1.2c-0.3,0.4-0.7,0.9-1,1.3c-0.4,0.4-0.8,0.8-1.2,1.1C38.5,47.5,38.1,47.8,37.7,48z"/>
</g>
<g>
</g>
<g>
</g>
<g>
</g>
<g>
</g>
<g>
</g>
</svg>
